<svg width="159" height="40" viewBox="0 0 159 40" fill="none" xmlns="http://www.w3.org/2000/svg">
<g clip-path="url(#clip0_375_60)">
<path d="M119.8 -39.7998L140.3 -19.2998L61.0996 59.9002L40.5996 39.4002L119.8 -39.7998Z" fill="#0E86FF"/>
<path d="M140.3 -20.2998L160.8 0.200195L81.5996 79.4002L61.0996 58.9002L140.3 -20.2998Z" fill="#0C7DEE"/>
<path d="M199.8 -39.7998L220.3 -19.2998L141.1 59.9002L120.6 39.4002L199.8 -39.7998Z" fill="#0E86FF"/>
<path d="M220.3 -20.2998L240.8 0.200195L161.6 79.4002L141.1 58.9002L220.3 -20.2998Z" fill="#0C7DEE"/>
<path d="M39.7996 -39.7998L60.2996 -19.2998L-18.9004 59.9002L-39.4004 39.4002L39.7996 -39.7998Z" fill="#0E86FF"/>
<path d="M60.2996 -20.2998L80.7996 0.200195L1.59961 79.4002L-18.9004 58.9002L60.2996 -20.2998Z" fill="#0C7DEE"/>
</g>
<defs>
<clipPath id="clip0_375_60">
<rect width="159" height="40" fill="white"/>
</clipPath>
</defs>
</svg>
